# xmcd CD database file
#
# Track frame offsets:
#	192
#	25440
#	42897
#	66977
#	83395
#	102642
#	130872
#	149072
#	166105
#
# Disc length: 2497 seconds
#
# Revision: 4
# Processed by: cddbd v1.5.2PL0 Copyright (c) Steve Scherf et al.
# Submitted via: CDex 1.51
#
DISCID=7a09bf09
DTITLE=Bobby Womack - The Poet II
DYEAR=1984
DGENRE=Soul
TTITLE0=Love Has Finally Come At Last
TTITLE1=It Takes A Lot Of Strength To Say Goodbye
TTITLE2=Through The Eyes Of A Child
TTITLE3=Surprise, Surprise
TTITLE4=Tryin' To Get Over You
TTITLE5=Tell Me Why
TTITLE6=Who's Foolin' Who
TTITLE7=I Wish I Had Someone To Go Home To
TTITLE8=American Dream
EXTD=YEAR: 1984
EXTT0=
EXTT1=
EXTT2=
EXTT3=
EXTT4=
EXTT5=
EXTT6=
EXTT7=
EXTT8=
PLAYORDER=
